<svg xmlns="http://www.w3.org/2000/svg" id="svg" version="1.1" height="70" viewBox="0.0 165.0 400.0 70">
  <style>
  .x-animate {
  fill: #555;
  animation: xcombo 6s linear infinite;
}

@keyframes xcombo {
  /* Blink 4 times (0-40%) */
  0%, 1%   { fill: #fff; }
  2%, 3% { fill: #66a4faff; }
  4%, 5% { fill: #fff; }
  6%, 7% { fill: #66a4faff; }
  8%, 9% { fill: #fff; }
  10%, 11% { fill: #66a4faff; }
  12%      { fill: #fff; }
  /* Light up (40-100%) */
  13%, 100% { fill: #66a4faff; }
}
</style>
  <defs>
  <radialGradient id="bgGradient" cx="50%" cy="50%" r="80%">
    <stop offset="0%" stop-color="#999" />
    <stop offset="100%" stop-color="#111" />
  </radialGradient>
</defs>
<rect width="100%" height="100%" fill="url(#bgGradient)" />
  <g id="svgg"><path class="x-animate" id="path0" d="M336.278 169.238 C 336.881 170.007,338.098 170.145,338.502 169.489 C 338.683 169.197,338.495 169.144,337.921 169.326 C 337.417 169.486,336.801 169.384,336.407 169.075 C 335.809 168.607,335.796 168.623,336.278 169.238 M326.408 170.380 C 326.654 170.776,324.971 173.466,324.615 173.246 C 324.446 173.141,324.331 173.361,324.361 173.735 C 324.390 174.108,324.215 174.377,323.972 174.332 C 323.728 174.286,323.553 174.550,323.581 174.918 C 323.610 175.285,323.400 175.538,323.115 175.479 C 322.831 175.420,322.705 175.543,322.834 175.754 C 323.157 176.276,320.933 179.780,320.519 179.403 C 320.336 179.237,320.309 179.314,320.459 179.574 C 320.608 179.835,320.190 180.794,319.527 181.708 L 318.324 183.369 319.179 184.014 C 319.664 184.380,319.913 184.855,319.754 185.112 C 319.588 185.381,319.685 185.522,319.990 185.459 C 320.275 185.400,320.485 185.652,320.456 186.020 C 320.428 186.387,320.603 186.651,320.847 186.606 C 321.090 186.560,321.291 186.819,321.294 187.179 C 321.297 187.540,321.457 187.980,321.650 188.156 C 321.854 188.343,321.867 188.248,321.682 187.928 C 321.461 187.547,321.510 187.470,321.841 187.674 C 322.104 187.837,322.227 188.210,322.114 188.504 C 322.001 188.797,322.104 189.158,322.343 189.306 C 322.624 189.479,322.666 189.394,322.461 189.063 C 322.246 188.714,322.297 188.645,322.623 188.846 C 322.885 189.009,323.002 189.397,322.883 189.708 C 322.761 190.025,322.836 190.170,323.051 190.036 C 323.264 189.905,323.459 189.984,323.486 190.211 C 323.554 190.784,323.650 191.096,324.025 191.957 C 324.350 192.703,325.254 191.435,325.056 190.512 C 324.935 189.951,325.813 188.646,326.164 188.863 C 326.354 188.980,326.636 188.869,326.791 188.618 C 326.968 188.332,326.905 188.265,326.623 188.439 C 326.375 188.593,326.172 188.561,326.172 188.369 C 326.172 187.688,326.695 187.514,327.308 187.992 C 327.854 188.418,327.867 188.396,327.408 187.810 C 326.835 187.079,327.144 186.159,327.822 186.577 C 328.072 186.732,328.134 186.658,327.972 186.397 C 327.617 185.822,328.438 184.281,328.936 184.588 C 329.145 184.718,329.291 184.679,329.260 184.502 C 329.129 183.745,329.322 183.173,329.643 183.371 C 329.834 183.489,329.966 183.280,329.936 182.906 C 329.907 182.532,330.082 182.264,330.325 182.309 C 330.568 182.354,330.744 182.091,330.716 181.723 C 330.687 181.355,330.897 181.103,331.181 181.162 C 331.466 181.221,331.590 181.093,331.456 180.877 C 330.952 180.061,332.022 178.806,332.742 179.369 C 333.327 179.827,333.342 179.811,332.877 179.216 C 332.344 178.536,332.593 177.553,333.203 177.930 C 333.388 178.044,333.667 177.932,333.822 177.680 C 334.009 177.378,333.935 177.328,333.603 177.533 C 333.267 177.741,333.167 177.664,333.299 177.300 C 333.407 177.002,333.673 176.795,333.890 176.840 C 334.106 176.885,334.260 176.622,334.231 176.254 C 334.203 175.887,334.412 175.634,334.697 175.693 C 334.982 175.752,335.105 175.624,334.972 175.408 C 334.619 174.837,335.509 173.368,336.017 173.682 C 336.274 173.841,336.339 173.770,336.177 173.509 C 335.845 172.972,337.058 171.016,337.538 171.313 C 337.727 171.429,337.780 171.261,337.657 170.938 C 337.474 170.462,336.377 170.330,331.838 170.235 C 328.762 170.170,326.318 170.236,326.408 170.380 M295.729 175.773 C 296.605 177.057,297.209 178.292,297.070 178.517 C 296.931 178.742,297.028 178.877,297.285 178.818 C 297.543 178.759,297.843 178.955,297.951 179.254 C 298.087 179.627,297.980 179.699,297.609 179.484 C 297.291 179.300,297.204 179.317,297.396 179.527 C 297.575 179.723,297.926 179.887,298.177 179.892 C 298.428 179.897,298.609 180.203,298.579 180.572 C 298.550 180.940,298.673 181.151,298.853 181.040 C 299.311 180.756,300.095 182.343,299.762 182.881 C 299.604 183.137,299.662 183.217,299.900 183.070 C 300.414 182.752,302.892 186.538,302.542 187.105 C 302.401 187.333,302.518 187.471,302.803 187.412 C 303.089 187.353,303.296 187.608,303.267 187.984 C 303.236 188.370,303.391 188.553,303.626 188.408 C 303.882 188.250,303.946 188.396,303.794 188.791 C 303.660 189.141,303.745 189.549,303.984 189.696 C 304.265 189.870,304.306 189.784,304.102 189.453 C 303.886 189.105,303.938 189.036,304.263 189.237 C 304.526 189.399,304.649 189.772,304.536 190.066 C 304.423 190.360,304.526 190.721,304.765 190.868 C 305.046 191.042,305.087 190.956,304.883 190.625 C 304.667 190.276,304.719 190.208,305.044 190.409 C 305.307 190.571,305.424 190.959,305.305 191.271 C 305.185 191.582,305.252 191.736,305.454 191.611 C 305.897 191.337,306.768 192.838,306.457 193.340 C 306.336 193.536,306.443 193.823,306.695 193.979 C 306.980 194.155,307.047 194.092,306.873 193.810 C 306.720 193.562,306.685 193.359,306.796 193.359 C 306.907 193.359,307.455 194.139,308.014 195.093 C 309.217 197.145,308.546 199.864,307.105 198.777 C 306.556 198.363,306.524 198.369,306.914 198.807 C 307.499 199.467,306.472 201.746,305.782 201.320 C 305.543 201.172,305.453 201.221,305.581 201.429 C 305.853 201.868,304.544 204.023,304.209 203.688 C 304.085 203.565,304.011 203.783,304.043 204.173 C 304.075 204.563,303.903 204.846,303.659 204.800 C 303.416 204.755,303.240 205.019,303.269 205.386 C 303.297 205.754,303.088 206.006,302.803 205.947 C 302.518 205.888,302.389 206.007,302.515 206.210 C 302.805 206.680,301.201 209.439,300.787 209.183 C 300.618 209.079,300.503 209.299,300.532 209.672 C 300.562 210.046,300.387 210.315,300.144 210.269 C 299.900 210.224,299.725 210.488,299.753 210.855 C 299.781 211.223,299.572 211.475,299.287 211.416 C 299.003 211.357,298.875 211.479,299.004 211.687 C 299.133 211.896,298.691 212.955,298.023 214.041 C 296.789 216.047,296.084 216.740,296.909 215.137 C 297.271 214.434,297.263 214.350,296.871 214.720 C 296.601 214.974,296.353 215.590,296.319 216.087 C 296.285 216.585,296.065 216.955,295.831 216.910 C 295.596 216.865,295.428 217.128,295.456 217.496 C 295.485 217.863,295.294 218.122,295.034 218.071 C 294.735 218.013,294.654 218.229,294.814 218.657 C 295.045 219.274,294.999 219.282,294.311 218.750 C 293.613 218.210,293.596 218.216,294.083 218.838 C 294.619 219.522,292.715 222.656,291.764 222.656 C 291.567 222.656,291.406 222.842,291.406 223.068 C 291.406 223.344,293.530 223.457,297.800 223.409 C 303.428 223.346,304.188 223.262,304.147 222.704 C 304.122 222.355,304.334 222.119,304.619 222.178 C 304.903 222.237,305.028 222.110,304.896 221.896 C 304.586 221.394,305.835 219.470,306.288 219.750 C 306.477 219.867,306.534 219.707,306.414 219.396 C 306.295 219.084,306.412 218.696,306.674 218.534 C 307.000 218.333,307.051 218.401,306.836 218.750 C 306.631 219.081,306.673 219.167,306.954 218.993 C 307.192 218.846,307.278 218.438,307.143 218.087 C 306.992 217.693,307.056 217.547,307.311 217.705 C 307.546 217.850,307.701 217.667,307.671 217.281 C 307.641 216.907,307.816 216.639,308.060 216.684 C 308.303 216.729,308.479 216.470,308.450 216.107 C 308.422 215.745,308.604 215.444,308.854 215.439 C 309.105 215.434,309.456 215.270,309.635 215.074 C 309.828 214.864,309.740 214.846,309.422 215.031 C 309.051 215.246,308.945 215.174,309.080 214.800 C 309.189 214.502,309.454 214.295,309.671 214.340 C 309.887 214.385,310.041 214.122,310.013 213.754 C 309.984 213.387,310.194 213.134,310.478 213.193 C 310.763 213.252,310.886 213.124,310.752 212.907 C 310.447 212.414,312.273 209.669,312.653 210.049 C 312.806 210.202,312.823 210.043,312.689 209.696 C 312.556 209.348,312.662 208.931,312.924 208.768 C 313.250 208.567,313.301 208.636,313.086 208.984 C 312.881 209.316,312.923 209.401,313.204 209.228 C 313.442 209.080,313.546 208.719,313.433 208.425 C 313.320 208.132,313.443 207.759,313.706 207.596 C 314.031 207.395,314.083 207.464,313.867 207.812 C 313.657 208.153,313.704 208.230,314.009 208.041 C 314.260 207.886,314.367 207.599,314.246 207.403 C 313.952 206.927,314.795 205.393,315.210 205.649 C 315.390 205.760,315.513 205.545,315.483 205.172 C 315.454 204.798,315.629 204.529,315.872 204.575 C 316.115 204.620,316.291 204.356,316.263 203.989 C 316.234 203.621,316.424 203.362,316.685 203.413 C 316.946 203.464,317.066 203.262,316.951 202.965 C 316.837 202.667,316.959 202.290,317.221 202.128 C 317.547 201.926,317.598 201.995,317.383 202.344 C 317.178 202.675,317.220 202.761,317.501 202.587 C 317.739 202.439,317.825 202.032,317.690 201.681 C 317.538 201.286,317.603 201.141,317.858 201.299 C 318.093 201.444,318.248 201.261,318.218 200.875 C 318.188 200.501,318.377 200.237,318.638 200.288 C 318.899 200.339,319.019 200.137,318.905 199.840 C 318.790 199.542,318.912 199.165,319.174 199.003 C 319.500 198.801,319.551 198.870,319.336 199.219 C 319.125 199.560,319.172 199.636,319.477 199.447 C 319.729 199.292,319.834 199.001,319.710 198.802 C 319.466 198.406,320.580 196.598,320.939 196.810 C 321.060 196.882,321.276 196.809,321.419 196.650 C 321.563 196.490,321.460 196.486,321.191 196.640 C 320.886 196.816,320.703 196.684,320.703 196.289 C 320.703 195.894,320.886 195.762,321.191 195.938 C 321.475 196.101,321.543 196.070,321.354 195.863 C 321.175 195.668,320.824 195.508,320.573 195.508 C 320.322 195.508,320.117 195.244,320.117 194.922 C 320.117 194.558,320.414 194.379,320.898 194.450 C 321.526 194.541,321.567 194.488,321.107 194.179 C 320.730 193.927,320.374 193.928,320.067 194.182 C 319.521 194.636,318.951 193.982,319.342 193.350 C 319.478 193.130,319.357 192.998,319.072 193.057 C 318.787 193.116,318.552 192.869,318.550 192.508 C 318.547 192.147,318.387 191.708,318.194 191.531 C 317.994 191.348,317.964 191.420,318.124 191.699 C 318.279 191.968,318.322 192.188,318.219 192.188 C 317.794 192.188,316.371 189.435,316.603 189.060 C 316.742 188.836,316.644 188.701,316.386 188.760 C 316.129 188.819,315.829 188.623,315.721 188.325 C 315.589 187.961,315.689 187.884,316.025 188.092 C 316.357 188.297,316.431 188.247,316.244 187.945 C 316.089 187.693,315.815 187.578,315.636 187.688 C 315.210 187.952,313.594 185.208,313.892 184.726 C 314.018 184.522,313.888 184.404,313.603 184.463 C 313.317 184.522,313.110 184.267,313.139 183.891 C 313.169 183.517,313.046 183.302,312.866 183.414 C 312.451 183.670,311.608 182.136,311.902 181.660 C 312.023 181.464,311.916 181.177,311.665 181.021 C 311.360 180.833,311.313 180.909,311.523 181.250 C 311.739 181.599,311.687 181.667,311.362 181.466 C 311.099 181.304,310.978 180.927,311.092 180.629 C 311.206 180.331,311.087 180.129,310.826 180.180 C 310.565 180.232,310.376 179.968,310.405 179.594 C 310.436 179.208,310.281 179.025,310.046 179.170 C 309.786 179.330,309.728 179.177,309.890 178.755 C 310.032 178.384,309.987 178.184,309.788 178.307 C 309.590 178.429,309.153 178.135,308.816 177.654 C 308.079 176.602,308.021 176.021,308.691 176.407 C 308.975 176.570,309.043 176.539,308.854 176.332 C 308.675 176.137,308.338 175.977,308.105 175.977 C 307.873 175.977,307.601 175.732,307.501 175.434 C 307.381 175.072,307.488 174.995,307.822 175.201 C 308.154 175.406,308.228 175.356,308.041 175.054 C 307.886 174.802,307.604 174.692,307.414 174.809 C 307.225 174.926,306.880 174.665,306.646 174.230 C 306.249 173.486,305.851 173.438,300.179 173.438 L 294.135 173.438 295.729 175.773 M300.158 184.435 C 299.985 184.715,300.051 184.780,300.330 184.608 C 300.740 184.355,300.962 184.841,300.818 185.674 C 300.787 185.851,300.943 185.884,301.163 185.748 C 301.438 185.578,301.436 185.260,301.159 184.742 C 300.689 183.864,300.540 183.818,300.158 184.435 M306.250 194.961 C 306.250 195.125,306.604 195.372,307.037 195.510 C 307.470 195.647,307.731 195.910,307.616 196.095 C 307.502 196.279,307.580 196.536,307.789 196.665 C 307.998 196.794,308.076 197.202,307.961 197.571 C 307.768 198.194,307.785 198.194,308.190 197.564 C 308.667 196.823,308.127 195.313,307.385 195.313 C 307.165 195.313,307.076 195.166,307.186 194.987 C 307.297 194.808,307.132 194.661,306.819 194.661 C 306.506 194.661,306.250 194.796,306.250 194.961 M322.810 202.667 C 322.927 202.856,322.751 203.343,322.419 203.751 C 322.088 204.159,321.945 204.245,322.102 203.944 C 322.284 203.592,322.231 203.491,321.952 203.663 C 321.714 203.811,321.629 204.218,321.763 204.569 C 321.915 204.964,321.851 205.109,321.595 204.951 C 321.360 204.806,321.205 204.989,321.236 205.375 C 321.265 205.749,321.076 206.013,320.815 205.962 C 320.554 205.911,320.419 206.086,320.515 206.352 C 320.611 206.618,320.326 207.275,319.881 207.813 C 319.437 208.350,319.204 208.525,319.365 208.203 C 319.525 207.881,319.508 207.753,319.326 207.918 C 319.006 208.209,318.729 209.440,318.756 210.449 C 318.792 211.803,318.945 212.425,319.205 212.265 C 319.591 212.026,320.406 213.594,320.129 214.044 C 320.008 214.239,320.115 214.526,320.366 214.682 C 320.671 214.870,320.727 214.781,320.534 214.416 C 320.375 214.114,320.608 214.307,321.053 214.844 C 321.497 215.381,321.778 216.049,321.677 216.329 C 321.576 216.609,321.655 216.738,321.852 216.615 C 322.480 216.228,322.745 217.195,322.202 217.888 C 321.743 218.474,321.755 218.496,322.302 218.070 C 322.644 217.803,323.039 217.701,323.180 217.842 C 323.625 218.286,323.462 218.685,322.754 218.891 C 322.359 219.006,322.483 219.059,323.047 219.018 C 323.759 218.965,324.009 219.129,323.970 219.625 C 323.939 220.011,324.094 220.194,324.329 220.049 C 324.585 219.891,324.649 220.036,324.498 220.431 C 324.363 220.782,324.448 221.189,324.687 221.337 C 324.965 221.509,325.018 221.409,324.835 221.056 C 324.678 220.755,324.922 220.932,325.378 221.451 C 325.833 221.970,326.117 222.627,326.008 222.911 C 325.899 223.196,326.023 223.386,326.284 223.335 C 326.544 223.284,326.735 223.543,326.706 223.910 C 326.678 224.278,326.853 224.542,327.097 224.496 C 327.340 224.451,327.522 224.678,327.501 225.000 C 327.468 225.493,328.274 225.586,332.579 225.586 C 336.092 225.586,337.671 225.721,337.617 226.016 C 337.570 226.275,337.929 226.372,338.515 226.260 C 339.164 226.136,339.445 225.861,339.351 225.439 C 339.274 225.090,339.002 224.849,338.746 224.902 C 338.325 224.991,338.113 224.504,338.235 223.730 C 338.260 223.569,338.123 223.481,337.929 223.535 C 337.402 223.681,335.492 220.717,335.796 220.225 C 335.965 219.953,335.873 219.915,335.541 220.121 C 335.162 220.355,335.092 220.261,335.281 219.770 C 335.422 219.402,335.383 219.196,335.195 219.312 C 334.626 219.663,333.479 217.601,333.936 217.051 C 334.455 216.425,333.987 215.793,333.008 215.798 C 332.508 215.800,332.246 215.560,332.280 215.131 C 332.310 214.763,332.193 214.549,332.021 214.655 C 331.553 214.944,329.978 212.197,330.306 211.666 C 330.477 211.390,330.421 211.312,330.165 211.469 C 329.488 211.888,329.179 210.968,329.752 210.237 C 330.215 209.644,330.201 209.627,329.625 210.078 C 328.902 210.642,328.269 210.091,328.748 209.315 C 328.934 209.015,328.854 208.971,328.510 209.183 C 328.136 209.414,328.060 209.326,328.237 208.866 C 328.371 208.515,328.286 208.107,328.048 207.960 C 327.767 207.786,327.725 207.872,327.930 208.203 C 328.145 208.552,328.094 208.620,327.768 208.419 C 327.505 208.257,327.384 207.880,327.498 207.582 C 327.613 207.284,327.515 207.082,327.281 207.134 C 326.540 207.295,326.487 206.325,327.224 206.113 C 327.663 205.987,327.560 205.937,326.953 205.982 C 326.241 206.035,325.991 205.871,326.030 205.375 C 326.060 205.002,325.928 204.792,325.737 204.910 C 325.416 205.108,325.223 204.537,325.354 203.780 C 325.385 203.602,325.242 203.561,325.036 203.688 C 324.831 203.815,324.431 203.609,324.148 203.229 C 323.631 202.536,322.413 202.025,322.810 202.667 M301.230 206.621 C 301.316 206.879,301.514 207.077,301.670 207.061 C 302.137 207.012,302.047 206.476,301.543 206.309 C 301.285 206.223,301.145 206.363,301.230 206.621 " stroke="none" fill="#05b4fa" fill-rule="evenodd" /><path  id="path1" d="M71.094 176.968 C 68.193 177.125,65.661 177.158,65.467 177.042 C 65.273 176.927,65.231 177.023,65.375 177.255 C 65.691 177.767,64.254 178.289,63.615 177.895 C 63.359 177.736,63.265 177.783,63.400 178.002 C 63.691 178.472,60.781 180.182,60.377 179.778 C 60.220 179.621,60.150 179.748,60.221 180.060 C 60.293 180.373,60.105 180.637,59.803 180.646 C 59.501 180.656,59.210 180.967,59.155 181.338 C 59.045 182.092,57.616 184.049,57.362 183.794 C 57.106 183.538,56.976 185.028,56.880 189.345 C 56.831 191.542,56.876 193.254,56.980 193.151 C 57.083 193.047,57.445 193.376,57.783 193.881 C 59.326 196.185,60.744 197.413,63.659 198.971 C 65.386 199.893,66.672 200.776,66.517 200.931 C 66.362 201.086,66.508 201.108,66.842 200.980 C 68.051 200.516,75.088 203.383,76.510 204.918 C 79.762 208.428,76.157 212.500,69.799 212.500 C 67.475 212.500,64.774 211.757,65.112 211.210 C 65.251 210.986,65.159 210.938,64.901 211.098 C 64.262 211.492,62.824 210.970,63.141 210.458 C 63.295 210.209,63.220 210.148,62.959 210.309 C 62.593 210.535,61.224 210.081,60.582 209.520 C 60.494 209.443,60.757 208.983,61.168 208.498 L 61.914 207.617 61.060 208.339 C 60.590 208.736,60.008 208.939,59.767 208.790 C 59.470 208.606,59.557 208.346,60.035 207.983 C 60.424 207.688,60.533 207.441,60.277 207.434 C 59.726 207.420,59.204 208.163,59.190 208.984 C 59.184 209.307,58.981 209.533,58.737 209.488 C 58.494 209.443,58.318 209.706,58.347 210.074 C 58.375 210.441,58.166 210.694,57.881 210.635 C 57.597 210.576,57.471 210.701,57.603 210.914 C 57.734 211.127,57.359 212.030,56.770 212.921 C 55.480 214.869,55.499 214.892,60.300 217.186 C 61.991 217.993,63.182 218.720,62.947 218.800 C 62.266 219.032,67.046 219.303,71.094 219.262 C 73.870 219.233,75.395 219.008,77.148 218.366 C 78.438 217.895,79.787 217.487,80.148 217.460 C 80.509 217.433,80.772 217.251,80.734 217.055 C 80.695 216.859,80.908 216.610,81.207 216.502 C 81.505 216.394,81.645 216.474,81.517 216.681 C 81.389 216.888,81.538 217.057,81.847 217.057 C 82.230 217.057,82.289 216.913,82.032 216.603 C 81.660 216.154,83.488 213.988,84.241 213.985 C 84.422 213.985,84.525 213.822,84.470 213.623 C 84.414 213.425,84.704 212.606,85.113 211.803 C 86.811 208.476,86.519 204.008,84.406 200.977 C 83.807 200.117,83.393 199.150,83.485 198.828 C 83.629 198.328,83.596 198.324,83.263 198.803 C 82.607 199.745,81.538 198.602,82.061 197.518 C 82.442 196.727,82.432 196.721,81.883 197.403 C 81.235 198.209,77.868 196.825,78.397 195.970 C 78.535 195.747,78.437 195.706,78.165 195.874 C 77.542 196.259,72.623 194.511,72.930 194.014 C 73.066 193.793,72.967 193.754,72.695 193.921 C 72.058 194.315,67.905 192.606,68.228 192.083 C 68.378 191.841,68.290 191.794,68.012 191.965 C 67.458 192.308,66.317 191.476,66.635 190.962 C 66.756 190.766,66.637 190.654,66.370 190.713 C 65.590 190.885,64.919 189.168,65.223 187.775 C 65.373 187.087,65.694 186.565,65.937 186.616 C 66.181 186.668,66.278 186.450,66.155 186.128 C 65.883 185.420,66.442 185.370,67.188 186.035 C 67.654 186.451,67.659 186.421,67.219 185.840 C 66.324 184.657,69.003 183.832,72.797 184.122 C 76.019 184.369,80.359 185.949,79.891 186.706 C 79.743 186.945,79.911 186.999,80.317 186.843 C 80.742 186.680,80.893 186.739,80.730 187.002 C 80.589 187.231,80.750 187.524,81.089 187.654 C 81.941 187.981,81.951 187.975,81.890 187.207 C 81.860 186.831,82.035 186.560,82.278 186.606 C 82.522 186.651,82.697 186.387,82.669 186.020 C 82.640 185.652,82.816 185.389,83.060 185.434 C 83.303 185.479,83.479 185.220,83.450 184.857 C 83.422 184.495,83.604 184.194,83.854 184.189 C 84.105 184.184,84.456 184.020,84.635 183.824 C 84.828 183.614,84.740 183.596,84.422 183.781 C 84.051 183.996,83.945 183.924,84.080 183.550 C 84.189 183.252,84.446 183.042,84.652 183.084 C 84.858 183.126,85.047 182.950,85.072 182.693 C 85.097 182.437,85.170 181.885,85.234 181.468 C 85.309 180.982,85.001 180.527,84.375 180.199 C 83.838 179.919,83.440 179.519,83.491 179.312 C 83.543 179.104,83.294 179.046,82.939 179.182 C 82.509 179.347,82.387 179.279,82.573 178.977 C 82.762 178.672,82.634 178.608,82.183 178.782 C 81.812 178.924,81.612 178.879,81.735 178.680 C 81.857 178.482,81.578 178.291,81.115 178.254 C 79.037 178.091,76.136 177.216,76.632 176.902 C 76.916 176.722,76.973 176.599,76.758 176.629 C 76.543 176.660,73.994 176.812,71.094 176.968 M119.984 181.152 C 120.049 185.071,120.211 184.614,120.400 179.980 C 120.459 178.529,120.376 177.342,120.215 177.343 C 120.054 177.343,119.950 179.058,119.984 181.152 M133.653 177.646 L 126.563 177.752 126.563 198.251 L 126.563 218.750 130.469 218.750 L 134.375 218.750 134.375 211.336 C 134.375 203.921,134.375 203.921,135.275 203.695 C 136.847 203.301,140.440 203.659,140.332 204.199 C 140.278 204.468,140.454 204.644,140.723 204.590 C 140.991 204.536,141.187 204.798,141.157 205.172 C 141.128 205.545,141.253 205.759,141.435 205.646 C 141.904 205.356,143.446 208.520,143.116 209.095 C 142.966 209.357,142.988 209.440,143.164 209.280 C 143.618 208.869,144.635 210.446,144.296 211.036 C 144.142 211.304,144.164 211.388,144.347 211.222 C 144.787 210.822,146.975 214.366,146.631 214.922 C 146.470 215.182,146.542 215.245,146.810 215.079 C 147.088 214.907,147.584 215.477,148.127 216.595 C 149.176 218.754,149.448 218.839,154.820 218.679 C 157.111 218.611,159.061 218.691,159.151 218.857 C 159.242 219.024,159.281 218.967,159.238 218.730 C 159.195 218.494,158.989 218.301,158.779 218.302 C 158.245 218.305,157.720 217.262,158.016 216.784 C 158.151 216.566,158.028 216.435,157.744 216.494 C 157.458 216.554,157.250 216.298,157.280 215.922 C 157.311 215.536,157.156 215.353,156.921 215.498 C 156.661 215.659,156.603 215.505,156.765 215.083 C 156.910 214.704,156.863 214.511,156.656 214.639 C 156.169 214.940,155.357 213.387,155.706 212.822 C 155.870 212.558,155.806 212.487,155.549 212.646 C 155.040 212.960,154.150 211.491,154.503 210.920 C 154.636 210.704,154.513 210.576,154.228 210.635 C 153.942 210.694,153.735 210.439,153.764 210.063 C 153.794 209.689,153.671 209.474,153.491 209.585 C 153.032 209.869,152.249 208.282,152.581 207.744 C 152.740 207.487,152.682 207.408,152.442 207.556 C 151.918 207.881,150.293 205.173,150.644 204.560 C 150.788 204.308,150.764 204.231,150.590 204.388 C 150.288 204.662,149.257 203.636,149.231 203.035 C 149.210 202.538,152.350 201.130,152.845 201.415 C 153.107 201.565,153.190 201.544,153.031 201.368 C 152.871 201.192,152.937 200.813,153.176 200.524 C 153.665 199.936,154.467 199.799,154.118 200.364 C 153.995 200.564,154.099 200.854,154.351 201.010 C 154.626 201.180,154.704 201.124,154.546 200.869 C 154.402 200.635,154.466 200.332,154.688 200.195 C 154.909 200.058,154.983 199.771,154.851 199.558 C 154.555 199.079,155.836 197.596,156.298 197.881 C 156.481 197.995,156.516 197.786,156.374 197.417 C 156.186 196.926,156.256 196.832,156.635 197.067 C 156.983 197.282,157.059 197.236,156.868 196.926 C 156.711 196.673,156.879 195.690,157.242 194.741 C 158.169 192.312,157.891 187.951,156.643 185.352 C 156.128 184.277,155.720 183.181,155.738 182.914 C 155.756 182.648,155.639 182.512,155.477 182.612 C 155.315 182.712,154.868 182.447,154.484 182.022 C 154.100 181.597,153.922 181.250,154.089 181.250 C 154.256 181.250,154.175 180.988,153.910 180.668 C 153.644 180.348,153.272 180.183,153.081 180.300 C 152.622 180.584,151.098 179.501,151.455 179.144 C 151.609 178.990,151.403 178.992,150.998 179.147 C 150.516 179.332,150.352 179.285,150.522 179.009 C 150.691 178.737,150.485 178.666,149.939 178.809 C 149.476 178.930,149.195 178.870,149.316 178.675 C 149.436 178.480,149.156 178.282,148.693 178.235 C 143.499 177.708,139.627 177.556,133.653 177.646 M170.996 177.648 L 165.625 177.756 165.625 198.258 L 165.625 218.760 179.004 218.657 L 192.383 218.555 192.496 215.332 L 192.610 212.109 183.512 212.063 C 178.508 212.038,174.282 212.038,174.121 212.063 C 173.960 212.089,173.828 209.736,173.828 206.836 L 173.828 201.563 182.227 201.563 L 190.625 201.563 190.625 198.242 L 190.625 194.922 182.227 194.922 L 173.828 194.922 173.828 189.844 L 173.828 184.766 183.218 184.766 L 192.607 184.766 192.495 181.233 L 192.383 177.700 184.375 177.619 C 179.971 177.575,173.950 177.588,170.996 177.648 M221.831 177.518 C 221.736 177.613,220.041 177.724,218.064 177.764 C 215.918 177.807,214.562 177.986,214.699 178.207 C 215.034 178.749,211.630 187.491,211.190 187.219 C 210.985 187.092,210.943 187.193,211.098 187.443 C 211.464 188.036,210.988 189.530,210.523 189.243 C 210.326 189.121,210.250 189.251,210.355 189.530 C 210.621 190.245,206.860 199.692,206.456 199.325 C 206.274 199.159,206.252 199.245,206.408 199.515 C 206.799 200.195,206.290 201.633,205.771 201.313 C 205.516 201.155,205.461 201.234,205.631 201.510 C 206.032 202.158,205.113 204.755,204.596 204.435 C 204.346 204.281,204.290 204.360,204.457 204.631 C 204.933 205.400,204.331 206.624,203.593 206.389 C 203.082 206.225,203.051 206.263,203.460 206.555 C 204.092 207.007,203.681 208.742,203.037 208.344 C 202.782 208.186,202.727 208.265,202.897 208.541 C 203.248 209.110,202.402 211.801,201.958 211.526 C 201.781 211.417,201.735 211.706,201.856 212.170 C 202.006 212.743,201.933 212.924,201.629 212.736 C 201.355 212.567,201.258 212.661,201.380 212.978 C 201.489 213.263,201.136 214.587,200.594 215.920 C 200.053 217.253,199.609 218.435,199.609 218.547 C 199.609 218.659,201.557 218.750,203.938 218.750 L 208.266 218.750 208.875 217.198 C 209.211 216.345,209.663 215.757,209.881 215.892 C 210.102 216.028,210.158 215.944,210.008 215.700 C 209.859 215.461,210.139 214.115,210.629 212.710 L 211.521 210.156 219.419 210.156 C 227.847 210.156,228.722 210.381,227.964 212.355 C 227.843 212.672,227.904 212.832,228.101 212.710 C 228.566 212.423,229.042 213.917,228.676 214.510 C 228.509 214.781,228.565 214.860,228.814 214.705 C 229.332 214.385,230.251 216.982,229.850 217.631 C 229.683 217.901,229.735 217.986,229.977 217.836 C 230.202 217.697,230.484 217.835,230.602 218.143 C 230.768 218.576,231.867 218.731,235.444 218.824 L 240.071 218.945 239.344 217.443 C 238.944 216.616,238.715 215.684,238.835 215.372 C 238.955 215.059,238.895 214.901,238.701 215.021 C 238.218 215.319,236.953 211.898,237.323 211.298 C 237.514 210.989,237.459 210.917,237.170 211.096 C 236.562 211.471,236.590 210.457,237.207 209.765 C 237.619 209.303,237.594 209.294,237.049 209.704 C 236.313 210.257,233.243 203.227,233.816 202.301 C 233.992 202.015,233.940 201.935,233.682 202.094 C 233.170 202.410,232.648 200.973,233.043 200.334 C 233.230 200.031,233.152 199.985,232.811 200.196 C 232.430 200.432,232.355 200.298,232.519 199.670 C 232.640 199.206,232.593 198.918,232.414 199.029 C 231.973 199.301,231.519 197.779,231.871 197.209 C 232.058 196.906,231.980 196.860,231.639 197.071 C 231.258 197.307,231.183 197.173,231.347 196.545 C 231.469 196.081,231.422 195.792,231.244 195.902 C 231.065 196.013,230.361 194.650,229.679 192.876 C 228.997 191.101,227.659 187.651,226.707 185.210 C 225.629 182.447,225.063 180.456,225.209 179.936 C 225.357 179.406,225.318 179.278,225.103 179.586 C 224.866 179.924,224.614 179.658,224.271 178.707 C 223.821 177.463,222.520 176.829,221.831 177.518 M245.313 197.998 L 245.313 218.750 249.023 218.750 L 252.734 218.750 252.734 205.492 C 252.734 197.932,252.887 192.139,253.090 192.014 C 253.584 191.709,255.941 195.637,255.611 196.213 C 255.464 196.470,255.488 196.549,255.664 196.389 C 256.108 195.987,257.141 197.553,256.798 198.108 C 256.630 198.379,256.691 198.452,256.951 198.292 C 257.485 197.961,258.341 199.461,257.966 200.068 C 257.802 200.333,257.866 200.404,258.123 200.245 C 258.657 199.915,259.513 201.414,259.137 202.022 C 258.974 202.286,259.038 202.357,259.295 202.198 C 259.829 201.868,260.685 203.367,260.309 203.975 C 260.150 204.232,260.209 204.310,260.449 204.162 C 260.951 203.852,263.033 207.266,262.686 207.828 C 262.552 208.045,262.640 208.174,262.882 208.115 C 263.123 208.056,263.789 208.799,264.362 209.766 C 265.223 211.219,265.270 211.423,264.635 210.944 C 263.889 210.382,263.887 210.388,264.554 211.174 C 265.526 212.319,268.175 212.444,267.572 211.317 C 267.345 210.893,267.254 210.525,267.369 210.498 C 267.484 210.471,267.739 210.427,267.936 210.400 C 268.133 210.374,268.441 210.192,268.620 209.996 C 268.812 209.786,268.725 209.768,268.406 209.953 C 268.036 210.168,267.929 210.096,268.065 209.722 C 268.173 209.424,268.473 209.228,268.730 209.287 C 268.988 209.346,269.087 209.214,268.951 208.994 C 268.524 208.303,269.145 207.720,269.761 208.232 C 270.110 208.521,270.313 208.540,270.313 208.284 C 270.313 208.060,270.104 207.808,269.849 207.723 C 269.552 207.624,269.912 206.701,270.856 205.147 C 271.708 203.745,272.504 202.836,272.747 202.986 C 272.996 203.140,273.054 203.062,272.889 202.796 C 272.535 202.222,273.845 199.964,274.351 200.277 C 274.562 200.408,274.605 200.309,274.447 200.053 C 274.102 199.495,275.706 196.782,276.201 197.088 C 276.395 197.208,276.435 196.989,276.290 196.602 C 276.049 195.960,276.092 195.950,276.782 196.484 C 277.474 197.020,277.496 197.015,277.029 196.419 C 276.596 195.864,276.713 195.427,277.811 193.489 L 279.102 191.211 279.212 196.289 C 279.273 199.082,279.273 205.350,279.212 210.217 C 279.139 216.047,279.235 218.983,279.492 218.821 C 279.707 218.686,281.509 218.628,283.496 218.694 L 287.109 218.812 287.109 198.273 L 287.109 177.734 282.605 177.734 C 278.969 177.734,278.057 177.847,277.876 178.318 C 277.753 178.639,277.515 178.817,277.347 178.713 C 277.179 178.609,277.065 178.830,277.095 179.203 C 277.125 179.579,276.917 179.835,276.631 179.775 C 276.347 179.716,276.222 179.843,276.354 180.057 C 276.683 180.589,275.449 182.894,274.988 182.610 C 274.777 182.480,274.729 182.670,274.876 183.052 C 275.064 183.542,274.994 183.636,274.615 183.402 C 274.271 183.190,274.191 183.233,274.376 183.533 C 274.719 184.088,273.686 185.654,273.242 185.251 C 273.066 185.092,273.047 185.178,273.199 185.444 C 273.563 186.077,271.536 189.531,270.996 189.198 C 270.753 189.047,270.697 189.128,270.861 189.392 C 271.188 189.921,269.925 192.235,269.464 191.951 C 269.291 191.844,269.265 192.058,269.407 192.427 C 269.574 192.862,269.513 193.004,269.234 192.831 C 268.997 192.685,268.677 192.771,268.521 193.023 C 268.345 193.308,268.408 193.375,268.690 193.201 C 269.296 192.827,269.258 193.172,268.538 194.563 C 268.207 195.204,267.769 195.626,267.566 195.500 C 267.356 195.370,267.307 195.561,267.454 195.942 C 267.642 196.433,267.572 196.527,267.194 196.293 C 266.843 196.076,266.769 196.124,266.965 196.441 C 267.276 196.943,266.561 198.047,265.926 198.047 C 265.714 198.047,265.646 197.774,265.774 197.441 C 265.902 197.106,265.840 196.937,265.636 197.064 C 265.149 197.365,263.562 194.244,263.913 193.676 C 264.073 193.417,264.007 193.347,263.752 193.505 C 263.208 193.841,262.369 192.337,262.740 191.691 C 262.892 191.427,262.867 191.346,262.685 191.512 C 262.244 191.912,260.056 188.368,260.400 187.812 C 260.557 187.557,260.490 187.489,260.236 187.646 C 259.702 187.976,258.846 186.477,259.222 185.869 C 259.402 185.577,259.319 185.535,258.978 185.746 C 258.600 185.980,258.530 185.886,258.718 185.395 C 258.863 185.017,258.816 184.824,258.609 184.952 C 258.122 185.253,257.310 183.700,257.659 183.135 C 257.818 182.879,257.760 182.799,257.523 182.945 C 257.031 183.249,256.531 182.134,256.895 181.545 C 257.036 181.316,256.981 181.235,256.771 181.365 C 256.562 181.494,255.882 180.730,255.262 179.667 L 254.133 177.734 250.943 177.734 C 249.189 177.734,247.205 177.625,246.533 177.490 L 245.313 177.246 245.313 197.998 M90.317 181.152 L 90.430 184.570 95.117 184.599 C 97.695 184.615,100.112 184.659,100.488 184.697 C 101.128 184.761,101.172 185.859,101.172 201.700 L 101.172 218.635 105.176 218.595 L 109.180 218.555 109.180 201.660 L 109.180 184.766 112.500 184.705 C 114.326 184.671,116.246 184.683,116.767 184.730 C 119.301 184.961,119.531 184.654,119.531 181.047 L 119.531 177.734 104.868 177.734 L 90.204 177.734 90.317 181.152 M85.826 181.256 C 86.128 182.412,86.637 182.563,86.421 181.433 C 86.320 180.903,86.098 180.469,85.929 180.469 C 85.759 180.469,85.713 180.823,85.826 181.256 M193.080 182.617 C 193.083 183.691,193.159 184.084,193.249 183.491 C 193.339 182.897,193.336 182.018,193.244 181.538 C 193.151 181.057,193.078 181.543,193.080 182.617 M125.751 183.887 C 125.735 184.263,125.663 184.878,125.591 185.254 C 125.519 185.630,125.620 185.938,125.816 185.938 C 126.012 185.938,126.172 185.322,126.172 184.570 C 126.172 183.198,125.807 182.605,125.751 183.887 M71.191 184.644 C 71.567 184.743,72.183 184.743,72.559 184.644 C 72.935 184.546,72.627 184.466,71.875 184.466 C 71.123 184.466,70.815 184.546,71.191 184.644 M145.526 185.334 C 146.274 185.647,146.840 186.130,146.783 186.408 C 146.723 186.702,146.971 186.865,147.375 186.797 C 147.855 186.716,148.248 187.105,148.644 188.054 C 149.314 189.656,149.454 193.138,148.810 192.188 C 148.507 191.739,148.462 191.830,148.619 192.578 C 148.840 193.632,147.951 195.150,147.336 194.770 C 147.131 194.643,146.724 194.846,146.431 195.219 C 145.939 195.847,145.956 195.854,146.657 195.313 C 147.116 194.958,147.299 194.921,147.121 195.218 C 146.342 196.513,144.327 197.025,139.355 197.191 L 134.375 197.358 134.375 191.062 L 134.375 184.766 139.270 184.766 C 142.671 184.766,144.581 184.939,145.526 185.334 M210.984 185.889 C 210.466 186.287,210.149 186.847,210.269 187.150 C 210.422 187.535,210.494 187.488,210.516 186.989 C 210.533 186.600,210.714 186.385,210.918 186.511 C 211.122 186.637,211.480 186.384,211.713 185.948 C 212.229 184.985,212.166 184.980,210.984 185.889 M100.352 188.965 C 100.047 200.423,100.264 219.158,100.704 219.327 C 100.984 219.434,101.112 219.360,100.989 219.161 C 100.866 218.962,100.768 211.757,100.772 203.149 C 100.775 194.542,100.691 187.500,100.585 187.500 C 100.478 187.500,100.373 188.159,100.352 188.965 M55.950 189.453 C 55.950 190.205,56.030 190.513,56.129 190.137 C 56.227 189.761,56.227 189.146,56.129 188.770 C 56.030 188.394,55.950 188.701,55.950 189.453 M222.089 195.105 C 223.078 197.833,223.788 200.323,223.667 200.639 C 223.546 200.954,223.603 201.116,223.795 200.997 C 224.086 200.817,225.004 202.709,224.998 203.476 C 224.997 203.605,222.536 203.731,219.529 203.755 C 215.477 203.788,214.063 203.677,214.063 203.325 C 214.063 202.404,214.924 200.394,215.236 200.587 C 215.410 200.694,215.453 200.403,215.332 199.939 C 215.168 199.312,215.242 199.177,215.624 199.413 C 215.967 199.625,216.042 199.578,215.852 199.270 C 215.447 198.614,217.151 193.681,217.671 194.003 C 217.925 194.160,217.975 194.076,217.798 193.790 C 217.638 193.531,217.910 192.178,218.402 190.783 C 219.477 187.739,219.376 187.621,222.089 195.105 M147.852 189.698 C 147.852 190.208,148.034 190.625,148.257 190.625 C 148.825 190.625,148.875 189.164,148.313 188.948 C 148.038 188.843,147.852 189.146,147.852 189.698 M125.893 192.383 C 125.896 193.457,125.972 193.850,126.062 193.256 C 126.151 192.663,126.149 191.784,126.056 191.303 C 125.964 190.823,125.890 191.309,125.893 192.383 M263.318 191.406 C 263.292 192.032,265.318 194.531,265.851 194.531 C 266.026 194.531,265.629 193.960,264.968 193.262 C 264.308 192.563,263.672 191.729,263.555 191.406 C 263.367 190.885,263.340 190.885,263.318 191.406 M253.197 196.289 L 253.246 200.195 253.517 196.875 C 253.666 195.049,253.644 193.291,253.468 192.969 C 253.287 192.637,253.170 194.077,253.197 196.289 M56.756 194.571 C 56.993 194.951,57.364 195.153,57.578 195.020 C 57.821 194.870,57.791 194.719,57.498 194.622 C 57.239 194.535,57.108 194.333,57.207 194.172 C 57.306 194.012,57.148 193.880,56.856 193.880 C 56.446 193.880,56.423 194.037,56.756 194.571 M74.905 194.018 C 75.175 194.122,75.297 194.366,75.177 194.560 C 75.058 194.754,75.232 194.808,75.566 194.680 C 76.449 194.341,76.307 193.923,75.293 193.873 C 74.810 193.849,74.635 193.915,74.905 194.018 M178.320 194.163 C 177.403 194.379,177.650 194.449,179.460 194.485 C 181.783 194.531,182.261 194.318,180.460 194.038 C 179.928 193.955,178.965 194.012,178.320 194.163 M182.031 194.099 C 182.031 194.295,182.930 194.463,184.027 194.472 C 185.125 194.480,185.907 194.370,185.764 194.227 C 185.352 193.816,182.031 193.701,182.031 194.099 M186.328 194.238 C 186.328 194.616,187.860 194.568,188.867 194.158 C 189.431 193.929,189.186 193.855,187.989 193.893 C 187.076 193.922,186.329 194.077,186.328 194.238 M191.001 193.848 C 190.801 195.234,190.911 202.213,191.132 202.077 C 191.433 201.891,191.464 193.750,191.164 193.750 C 191.083 193.750,191.009 193.794,191.001 193.848 M278.100 193.848 C 277.860 194.789,277.913 196.484,278.183 196.484 C 278.379 196.484,278.499 195.869,278.448 195.117 C 278.372 193.983,278.213 193.405,278.100 193.848 M254.167 194.401 C 253.680 194.888,253.904 195.964,254.492 195.964 C 254.814 195.964,255.078 195.729,255.078 195.443 C 255.078 195.156,254.892 194.922,254.664 194.922 C 254.437 194.922,254.359 194.746,254.492 194.531 C 254.765 194.089,254.561 194.007,254.167 194.401 M125.872 195.703 C 125.872 196.455,125.952 196.763,126.051 196.387 C 126.149 196.011,126.149 195.396,126.051 195.020 C 125.952 194.644,125.872 194.951,125.872 195.703 M244.358 194.886 C 244.238 195.081,244.304 195.652,244.506 196.155 C 244.849 197.011,244.874 196.988,244.897 195.801 C 244.922 194.517,244.758 194.239,244.358 194.886 M136.438 196.772 C 137.465 196.853,139.047 196.852,139.953 196.770 C 140.860 196.688,140.020 196.622,138.086 196.623 C 136.152 196.624,135.411 196.691,136.438 196.772 M278.002 197.559 C 277.908 197.720,277.974 198.203,278.146 198.633 C 278.421 199.315,278.464 199.278,278.488 198.340 C 278.515 197.280,278.333 196.987,278.002 197.559 M125.692 200.690 C 125.593 201.069,125.648 201.728,125.814 202.155 C 126.045 202.745,126.124 202.581,126.144 201.465 C 126.174 199.895,125.985 199.571,125.692 200.690 M222.670 200.905 C 222.662 201.080,222.838 201.563,223.061 201.979 C 223.506 202.811,224.219 202.996,224.219 202.279 C 224.219 202.028,224.096 201.946,223.946 202.096 C 223.796 202.246,223.451 201.967,223.179 201.477 C 222.907 200.987,222.678 200.729,222.670 200.905 M174.707 202.212 C 174.438 202.320,174.240 202.965,174.265 203.646 L 174.311 204.883 174.559 203.728 C 174.728 202.941,175.117 202.488,175.782 202.302 C 176.535 202.093,176.580 202.029,175.977 202.023 C 175.547 202.018,174.976 202.103,174.707 202.212 M136.628 204.189 C 137.330 204.276,138.385 204.274,138.972 204.185 C 139.559 204.096,138.984 204.025,137.695 204.027 C 136.406 204.029,135.926 204.102,136.628 204.189 M253.259 207.227 C 253.260 208.945,253.329 209.600,253.412 208.681 C 253.494 207.762,253.493 206.356,253.409 205.556 C 253.325 204.756,253.257 205.508,253.259 207.227 M174.309 206.250 C 174.309 207.002,174.390 207.310,174.488 206.934 C 174.586 206.558,174.586 205.942,174.488 205.566 C 174.390 205.190,174.309 205.498,174.309 206.250 M125.898 211.328 C 125.898 212.510,125.972 212.993,126.061 212.402 C 126.151 211.812,126.151 210.845,126.061 210.254 C 125.972 209.663,125.898 210.146,125.898 211.328 M225.391 211.296 C 225.391 211.600,225.506 211.733,225.648 211.592 C 225.789 211.451,226.145 211.534,226.438 211.778 C 226.732 212.021,227.085 212.108,227.223 211.970 C 227.361 211.832,227.247 211.719,226.970 211.719 C 226.612 211.719,226.584 211.578,226.872 211.230 C 227.177 210.863,227.044 210.742,226.334 210.742 C 225.781 210.742,225.391 210.971,225.391 211.296 M192.885 214.195 C 193.060 219.107,193.237 219.724,193.295 215.625 C 193.324 213.584,193.218 211.710,193.059 211.461 C 192.901 211.212,192.822 212.442,192.885 214.195 M253.231 214.063 C 253.231 215.029,253.308 215.425,253.401 214.941 C 253.494 214.458,253.494 213.667,253.401 213.184 C 253.308 212.700,253.231 213.096,253.231 214.063 M244.501 214.941 C 244.353 217.356,244.372 217.872,244.604 217.728 C 244.879 217.559,244.951 214.453,244.681 214.453 C 244.598 214.453,244.518 214.673,244.501 214.941 M253.216 217.578 C 253.216 218.330,253.296 218.638,253.394 218.262 C 253.493 217.886,253.493 217.271,253.394 216.895 C 253.296 216.519,253.216 216.826,253.216 217.578 " stroke="none" fill="#fbfbfb" fill-rule="evenodd" /><path id="path2" d="M192.699 179.492 C 192.701 180.781,192.774 181.262,192.861 180.559 C 192.948 179.857,192.946 178.803,192.857 178.216 C 192.768 177.629,192.697 178.203,192.699 179.492 M287.109 198.033 L 287.109 218.723 283.105 218.849 L 279.102 218.976 283.301 219.058 L 287.500 219.141 287.500 198.242 C 287.500 186.748,287.412 177.344,287.305 177.344 C 287.197 177.344,287.109 186.654,287.109 198.033 M126.353 196.875 C 126.353 207.510,126.403 211.860,126.465 206.543 C 126.526 201.226,126.526 192.524,126.465 187.207 C 126.403 181.890,126.353 186.240,126.353 196.875 M119.670 181.445 C 119.669 183.379,119.735 184.219,119.817 183.313 C 119.899 182.406,119.900 180.824,119.819 179.797 C 119.738 178.770,119.671 179.512,119.670 181.445 M245.103 197.461 C 245.103 208.203,245.153 212.541,245.215 207.102 C 245.276 201.662,245.276 192.873,245.214 187.570 C 245.153 182.268,245.103 186.719,245.103 197.461 M59.745 180.762 L 58.398 182.227 59.863 180.880 C 61.227 179.627,61.508 179.297,61.209 179.297 C 61.144 179.297,60.485 179.956,59.745 180.762 M256.445 181.641 C 256.990 182.715,257.523 183.594,257.630 183.594 C 257.738 183.594,257.380 182.715,256.836 181.641 C 256.292 180.566,255.758 179.688,255.651 179.688 C 255.543 179.688,255.901 180.566,256.445 181.641 M154.102 181.641 C 154.941 182.500,155.715 183.203,155.823 183.203 C 155.930 183.203,155.331 182.500,154.492 181.641 C 153.653 180.781,152.879 180.078,152.771 180.078 C 152.664 180.078,153.262 180.781,154.102 181.641 M274.757 182.910 C 274.397 183.608,273.847 184.619,273.534 185.156 C 272.988 186.093,272.991 186.101,273.622 185.352 C 274.392 184.437,275.886 181.641,275.604 181.641 C 275.498 181.641,275.116 182.212,274.757 182.910 M75.753 184.963 C 76.919 185.295,78.110 185.763,78.399 186.003 C 78.688 186.243,79.015 186.350,79.125 186.240 C 79.453 185.911,76.633 184.723,75.078 184.534 C 73.981 184.401,74.144 184.505,75.753 184.963 M145.738 185.645 C 145.828 185.698,146.517 186.270,147.268 186.914 L 148.633 188.086 147.486 186.816 C 146.854 186.118,146.166 185.547,145.956 185.547 C 145.745 185.547,145.647 185.591,145.738 185.645 M134.526 192.188 C 134.526 194.873,134.588 195.972,134.664 194.629 C 134.740 193.286,134.740 191.089,134.664 189.746 C 134.588 188.403,134.526 189.502,134.526 192.188 M157.911 189.258 C 157.915 190.117,157.995 190.423,158.089 189.937 C 158.182 189.451,158.179 188.748,158.081 188.374 C 157.983 188.001,157.907 188.398,157.911 189.258 M165.346 189.648 C 165.349 190.723,165.425 191.116,165.515 190.522 C 165.604 189.928,165.602 189.049,165.509 188.569 C 165.417 188.088,165.343 188.574,165.346 189.648 M261.058 189.648 C 261.389 190.293,261.951 191.172,262.309 191.602 C 262.666 192.031,262.563 191.680,262.080 190.820 C 261.016 188.924,260.218 188.010,261.058 189.648 M148.919 190.625 C 148.919 191.377,148.999 191.685,149.097 191.309 C 149.196 190.933,149.196 190.317,149.097 189.941 C 148.999 189.565,148.919 189.873,148.919 190.625 M157.903 192.578 C 157.903 193.330,157.984 193.638,158.082 193.262 C 158.180 192.886,158.180 192.271,158.082 191.895 C 157.984 191.519,157.903 191.826,157.903 192.578 M147.230 194.558 C 146.459 195.402,145.957 196.094,146.116 196.094 C 146.413 196.094,148.828 193.473,148.828 193.150 C 148.828 192.840,148.675 192.975,147.230 194.558 M263.867 194.531 C 264.200 195.176,264.561 195.703,264.669 195.703 C 264.776 195.703,264.591 195.176,264.258 194.531 C 263.925 193.887,263.564 193.359,263.456 193.359 C 263.349 193.359,263.534 193.887,263.867 194.531 M165.373 200.195 C 165.372 202.129,165.438 202.969,165.520 202.063 C 165.602 201.156,165.603 199.574,165.522 198.547 C 165.441 197.520,165.374 198.262,165.373 200.195 M85.321 202.486 C 85.767 203.403,86.187 204.022,86.254 203.861 C 86.400 203.511,85.299 201.306,84.835 201.020 C 84.655 200.908,84.874 201.568,85.321 202.486 M259.558 202.539 C 260.159 203.613,260.832 204.668,261.054 204.883 C 261.275 205.098,260.965 204.395,260.364 203.320 C 259.763 202.246,259.090 201.191,258.868 200.977 C 258.647 200.762,258.957 201.465,259.558 202.539 M134.463 211.198 C 134.398 216.754,134.249 218.736,133.887 218.882 C 133.504 219.036,133.507 219.086,133.899 219.110 C 134.722 219.161,134.789 218.453,134.668 210.925 L 134.552 203.711 134.463 211.198 M86.440 206.836 C 86.443 207.910,86.519 208.303,86.608 207.709 C 86.698 207.116,86.696 206.237,86.603 205.756 C 86.510 205.276,86.437 205.762,86.440 206.836 M165.385 211.328 C 165.385 214.014,165.447 215.112,165.524 213.770 C 165.600 212.427,165.600 210.229,165.524 208.887 C 165.447 207.544,165.385 208.643,165.385 211.328 M213.184 210.432 C 213.667 210.525,214.458 210.525,214.941 210.432 C 215.425 210.339,215.029 210.263,214.063 210.263 C 213.096 210.263,212.700 210.339,213.184 210.432 M217.291 210.437 C 217.884 210.526,218.763 210.524,219.244 210.431 C 219.724 210.339,219.238 210.265,218.164 210.268 C 217.090 210.271,216.697 210.347,217.291 210.437 M222.559 210.432 C 223.042 210.525,223.833 210.525,224.316 210.432 C 224.800 210.339,224.404 210.263,223.438 210.263 C 222.471 210.263,222.075 210.339,222.559 210.432 M57.031 211.719 C 56.572 212.363,56.285 212.891,56.392 212.891 C 56.500 212.891,56.963 212.363,57.422 211.719 C 57.881 211.074,58.168 210.547,58.061 210.547 C 57.954 210.547,57.490 211.074,57.031 211.719 M100.880 212.695 C 100.884 213.555,100.964 213.860,101.058 213.374 C 101.151 212.888,101.147 212.185,101.050 211.812 C 100.952 211.438,100.875 211.836,100.880 212.695 M237.333 212.109 C 237.477 212.646,237.757 213.350,237.957 213.672 C 238.208 214.079,238.239 213.960,238.057 213.281 C 237.914 212.744,237.633 212.041,237.434 211.719 C 237.182 211.312,237.152 211.431,237.333 212.109 M192.699 213.867 C 192.701 215.156,192.774 215.637,192.861 214.934 C 192.948 214.232,192.946 213.178,192.857 212.591 C 192.768 212.004,192.697 212.578,192.699 213.867 M69.629 212.379 C 70.005 212.477,70.620 212.477,70.996 212.379 C 71.372 212.280,71.064 212.200,70.313 212.200 C 69.561 212.200,69.253 212.280,69.629 212.379 M55.729 213.542 C 55.175 214.096,55.509 215.226,56.348 215.633 C 57.176 216.034,57.184 216.025,56.493 215.469 C 56.030 215.097,55.836 214.585,55.968 214.080 C 56.190 213.229,56.145 213.126,55.729 213.542 M199.456 217.415 C 198.819 219.073,199.008 219.144,203.809 219.057 L 208.398 218.974 203.965 218.849 L 199.531 218.724 199.773 217.760 C 200.042 216.689,199.825 216.452,199.456 217.415 M148.534 217.969 C 149.087 218.896,149.300 218.947,152.781 218.971 L 156.445 218.996 152.930 218.860 C 149.874 218.742,149.318 218.611,148.683 217.858 L 147.951 216.992 148.534 217.969 M245.255 218.849 C 245.452 219.046,246.029 219.141,246.537 219.061 C 247.319 218.938,247.264 218.883,246.179 218.704 C 245.403 218.575,245.038 218.632,245.255 218.849 M103.822 219.038 C 104.957 219.118,106.715 219.117,107.728 219.037 C 108.741 218.956,107.813 218.892,105.664 218.893 C 103.516 218.894,102.687 218.959,103.822 219.038 M129.791 219.030 C 130.384 219.120,131.263 219.118,131.744 219.025 C 132.224 218.932,131.738 218.859,130.664 218.862 C 129.590 218.865,129.197 218.941,129.791 219.030 M171.777 219.042 C 175.483 219.107,181.548 219.107,185.254 219.042 C 188.960 218.978,185.928 218.926,178.516 218.926 C 171.104 218.926,168.071 218.978,171.777 219.042 M232.531 219.038 C 233.558 219.118,235.140 219.117,236.047 219.035 C 236.954 218.954,236.113 218.887,234.180 218.889 C 232.246 218.890,231.504 218.957,232.531 219.038 M70.605 219.807 C 71.089 219.900,71.880 219.900,72.363 219.807 C 72.847 219.714,72.451 219.638,71.484 219.638 C 70.518 219.638,70.122 219.714,70.605 219.807 " stroke="none" fill="#97999b" fill-rule="evenodd" /><path id="path3" d="M328.226 169.847 C 326.599 169.964,326.526 170.033,324.319 173.506 C 323.082 175.453,321.235 178.348,320.215 179.941 C 319.194 181.534,318.359 182.950,318.359 183.089 C 318.359 183.484,320.628 180.134,323.828 175.014 L 326.758 170.327 332.129 170.320 C 335.083 170.316,337.500 170.387,337.500 170.477 C 337.500 170.568,335.489 173.776,333.030 177.606 C 330.572 181.436,327.740 185.854,326.737 187.424 C 325.734 188.993,324.987 190.351,325.077 190.442 C 325.167 190.532,326.891 188.017,328.908 184.854 C 330.924 181.690,333.873 177.109,335.460 174.674 C 337.046 172.238,338.249 170.150,338.132 170.033 C 337.893 169.794,330.792 169.661,328.226 169.847 M293.750 173.279 C 293.750 173.407,294.689 174.945,295.836 176.697 C 298.592 180.904,300.288 183.562,306.842 193.945 C 307.520 195.020,308.207 196.127,308.369 196.406 C 308.551 196.720,307.853 198.133,306.536 200.117 C 305.367 201.879,302.782 205.869,300.792 208.984 C 298.803 212.100,295.962 216.494,294.480 218.750 C 292.998 221.006,292.271 222.295,292.865 221.615 C 293.459 220.934,296.401 216.540,299.402 211.849 C 302.403 207.158,305.795 201.928,306.938 200.227 C 308.174 198.388,308.924 196.892,308.788 196.536 C 308.496 195.775,300.304 182.713,296.812 177.441 L 294.161 173.438 300.155 173.438 L 306.149 173.438 308.106 176.465 C 309.182 178.130,312.301 183.008,315.037 187.305 C 317.773 191.602,320.196 195.402,320.421 195.751 C 320.747 196.258,319.858 197.906,315.999 203.954 C 310.642 212.349,303.909 222.745,303.632 223.047 C 303.534 223.154,300.699 223.339,297.332 223.457 L 291.211 223.672 297.461 223.749 L 303.711 223.827 305.521 220.995 C 306.517 219.438,309.136 215.352,311.342 211.914 C 313.548 208.477,316.702 203.543,318.352 200.951 L 321.352 196.238 319.767 193.920 C 318.183 191.605,314.448 185.741,309.270 177.441 L 306.529 173.047 300.139 173.047 C 296.625 173.047,293.750 173.152,293.750 173.279 M319.141 184.184 C 319.141 184.697,323.969 191.406,324.338 191.406 C 324.570 191.406,324.494 191.187,324.171 190.918 C 323.848 190.649,322.650 188.979,321.508 187.207 C 319.591 184.230,319.141 183.655,319.141 184.184 M320.702 205.888 C 318.109 209.844,317.909 210.292,318.358 211.130 C 318.627 211.634,320.814 215.093,323.218 218.816 L 327.587 225.586 332.446 225.603 L 337.305 225.621 332.617 225.491 L 327.930 225.362 325.220 221.177 C 318.599 210.952,318.352 210.510,318.798 209.676 C 319.028 209.246,320.172 207.413,321.339 205.603 L 323.462 202.313 324.354 203.403 C 324.844 204.002,327.028 207.305,329.207 210.742 C 331.385 214.180,334.391 218.837,335.886 221.092 C 337.730 223.874,338.457 225.284,338.149 225.480 C 337.854 225.668,337.934 225.771,338.379 225.775 C 339.519 225.785,340.069 226.770,331.828 214.063 C 330.087 211.377,327.556 207.466,326.205 205.371 C 324.853 203.276,323.700 201.563,323.642 201.563 C 323.584 201.563,322.261 203.509,320.702 205.888 " stroke="none" fill="#0d79ba" fill-rule="evenodd" /><path id="path4" d="M69.531 176.563 C 69.531 176.780,70.581 176.953,71.898 176.953 C 73.376 176.953,74.174 176.806,74.023 176.563 C 73.891 176.348,72.826 176.172,71.657 176.172 C 70.488 176.172,69.531 176.348,69.531 176.563 M77.734 177.273 C 77.734 177.478,78.267 177.724,78.919 177.819 C 80.213 178.009,80.017 177.590,78.613 177.166 C 78.130 177.020,77.734 177.068,77.734 177.273 M90.045 177.335 C 89.893 177.580,95.170 177.754,104.800 177.823 C 116.590 177.907,119.792 177.825,119.792 177.441 C 119.792 176.825,90.425 176.719,90.045 177.335 M126.172 177.346 C 126.172 177.599,129.776 177.732,136.340 177.720 C 141.932 177.711,146.678 177.808,146.887 177.937 C 147.095 178.066,147.266 178.009,147.266 177.812 C 147.266 177.211,143.575 176.960,134.668 176.957 C 129.234 176.954,126.172 177.095,126.172 177.346 M165.429 177.344 C 165.269 177.603,169.826 177.728,178.873 177.714 C 187.030 177.701,192.650 177.543,192.786 177.323 C 192.928 177.093,187.839 176.953,179.343 176.953 C 170.633 176.953,165.583 177.095,165.429 177.344 M215.234 177.399 C 215.234 177.719,216.453 177.787,219.531 177.641 C 221.898 177.529,223.828 177.592,223.828 177.781 C 223.828 177.970,223.998 178.125,224.206 178.125 C 224.415 178.125,224.484 177.861,224.360 177.539 C 224.073 176.792,215.234 176.656,215.234 177.399 M245.898 177.344 C 247.697 177.801,255.005 177.801,254.297 177.344 C 253.975 177.135,251.689 176.983,249.219 177.005 C 246.316 177.031,245.141 177.151,245.898 177.344 M277.882 177.515 C 277.376 178.055,286.747 177.837,287.302 177.297 C 287.553 177.053,286.022 176.951,282.980 177.010 C 280.286 177.062,278.104 177.278,277.882 177.515 M63.697 177.899 C 63.319 178.355,63.381 178.416,64.040 178.244 C 64.482 178.128,64.844 177.879,64.844 177.689 C 64.844 177.162,64.213 177.278,63.697 177.899 M148.047 178.068 C 148.047 178.242,148.689 178.582,149.474 178.823 C 151.038 179.302,150.825 178.931,149.121 178.208 C 148.530 177.957,148.047 177.894,148.047 178.068 M287.634 180.664 C 287.635 182.383,287.704 183.037,287.787 182.119 C 287.869 181.200,287.868 179.794,287.784 178.994 C 287.700 178.194,287.632 178.945,287.634 180.664 M89.975 180.859 C 89.975 182.471,90.044 183.130,90.128 182.324 C 90.213 181.519,90.213 180.200,90.128 179.395 C 90.044 178.589,89.975 179.248,89.975 180.859 M61.730 178.891 C 61.414 179.091,61.251 179.350,61.368 179.467 C 61.485 179.584,61.919 179.423,62.333 179.110 C 63.157 178.487,62.656 178.305,61.730 178.891 M192.677 183.008 C 192.681 183.867,192.761 184.173,192.854 183.687 C 192.948 183.201,192.944 182.498,192.847 182.124 C 192.749 181.751,192.672 182.148,192.677 183.008 M69.141 184.375 C 69.141 184.590,69.482 184.766,69.899 184.766 C 70.316 184.766,70.766 184.590,70.898 184.375 C 71.035 184.153,70.707 183.984,70.140 183.984 C 69.590 183.984,69.141 184.160,69.141 184.375 M165.351 185.938 C 165.351 187.119,165.425 187.603,165.514 187.012 C 165.604 186.421,165.604 185.454,165.514 184.863 C 165.425 184.272,165.351 184.756,165.351 185.938 M89.981 184.863 C 89.880 185.024,92.269 185.156,95.289 185.156 L 100.781 185.156 100.864 189.551 L 100.947 193.945 101.073 189.682 C 101.154 186.966,101.045 185.264,100.775 184.994 C 100.292 184.512,90.277 184.391,89.981 184.863 M112.500 184.766 L 109.180 184.961 109.180 201.856 C 109.180 211.148,109.312 218.750,109.473 218.750 C 109.634 218.750,109.766 211.191,109.766 201.953 L 109.766 185.156 114.909 185.156 C 117.738 185.156,119.932 185.037,119.786 184.890 C 119.454 184.558,116.805 184.512,112.500 184.766 M134.375 185.059 C 134.375 185.220,136.660 185.352,139.453 185.352 C 142.246 185.352,144.531 185.220,144.531 185.059 C 144.531 184.897,142.246 184.766,139.453 184.766 C 136.660 184.766,134.375 184.897,134.375 185.059 M173.834 185.449 C 173.838 185.928,173.931 185.989,174.146 185.652 C 174.370 185.298,176.927 185.141,183.808 185.058 L 193.164 184.946 183.496 184.856 C 174.513 184.772,173.829 184.814,173.834 185.449 M287.599 187.695 C 287.603 188.555,287.683 188.860,287.776 188.374 C 287.870 187.888,287.866 187.185,287.768 186.812 C 287.671 186.438,287.594 186.836,287.599 187.695 M56.127 187.793 C 56.033 187.954,56.099 188.438,56.271 188.867 C 56.546 189.549,56.589 189.512,56.613 188.574 C 56.640 187.514,56.458 187.221,56.127 187.793 M65.121 188.281 C 65.009 188.710,65.076 189.160,65.271 189.280 C 65.466 189.401,65.625 189.049,65.625 188.500 C 65.625 187.303,65.402 187.206,65.121 188.281 M173.927 188.867 C 173.931 189.727,174.011 190.032,174.104 189.546 C 174.198 189.060,174.194 188.357,174.097 187.984 C 173.999 187.610,173.922 188.008,173.927 188.867 M218.750 189.844 C 218.467 190.373,218.462 190.625,218.736 190.625 C 218.959 190.625,219.148 190.317,219.156 189.941 C 219.167 189.463,219.352 189.591,219.773 190.367 C 220.512 191.730,220.910 191.506,220.264 190.090 C 219.704 188.860,219.311 188.796,218.750 189.844 M278.711 191.797 C 278.578 192.012,278.580 192.188,278.716 192.188 C 278.851 192.188,278.677 192.472,278.330 192.820 C 277.982 193.168,277.803 193.558,277.932 193.688 C 278.062 193.817,278.312 193.688,278.490 193.402 C 278.757 192.969,278.849 192.971,279.031 193.413 C 279.151 193.706,279.223 193.374,279.190 192.676 C 279.126 191.298,279.076 191.207,278.711 191.797 M253.012 192.040 C 252.859 192.193,252.764 193.387,252.800 194.694 L 252.866 197.070 253.093 194.727 C 253.290 192.699,253.382 192.488,253.779 193.161 C 254.032 193.589,254.327 193.850,254.436 193.741 C 254.545 193.632,254.332 193.142,253.962 192.652 C 253.593 192.162,253.165 191.887,253.012 192.040 M165.325 194.922 C 165.325 195.674,165.405 195.981,165.504 195.605 C 165.602 195.229,165.602 194.614,165.504 194.238 C 165.405 193.862,165.325 194.170,165.325 194.922 M173.958 194.357 C 173.958 194.832,175.283 194.922,182.292 194.922 L 190.625 194.922 190.702 198.145 L 190.778 201.367 190.917 198.641 C 191.157 193.918,191.839 194.282,182.974 194.404 C 178.752 194.462,174.996 194.348,174.628 194.151 C 174.139 193.889,173.958 193.945,173.958 194.357 M287.599 195.117 C 287.603 195.977,287.683 196.282,287.776 195.796 C 287.870 195.310,287.866 194.607,287.768 194.234 C 287.671 193.860,287.594 194.258,287.599 195.117 M100.915 197.070 C 100.917 198.789,100.985 199.444,101.068 198.525 C 101.150 197.606,101.149 196.200,101.065 195.400 C 100.981 194.600,100.914 195.352,100.915 197.070 M279.079 205.664 C 279.079 212.109,279.133 214.801,279.198 211.645 C 279.264 208.490,279.264 203.216,279.199 199.926 C 279.133 196.637,279.079 199.219,279.079 205.664 M57.813 195.077 C 57.813 195.177,58.384 195.660,59.082 196.150 C 59.983 196.781,60.191 196.839,59.798 196.350 C 59.239 195.654,57.813 194.739,57.813 195.077 M78.912 196.377 C 78.909 196.640,79.434 197.128,80.078 197.461 C 80.723 197.794,81.250 197.905,81.250 197.708 C 81.250 197.368,80.352 196.870,79.825 196.919 C 79.690 196.932,79.431 196.707,79.249 196.420 C 79.011 196.045,78.917 196.033,78.912 196.377 M222.152 196.875 C 222.265 197.305,222.496 197.656,222.665 197.656 C 222.835 197.656,222.882 197.305,222.769 196.875 C 222.657 196.445,222.426 196.094,222.257 196.094 C 222.087 196.094,222.040 196.445,222.152 196.875 M137.891 196.875 L 134.180 197.116 138.551 197.191 C 141.128 197.235,143.022 197.105,143.164 196.875 C 143.302 196.651,143.020 196.516,142.504 196.559 C 142.007 196.600,139.932 196.742,137.891 196.875 M154.460 199.419 C 153.660 200.174,153.076 200.857,153.163 200.937 C 153.249 201.017,154.023 200.401,154.883 199.568 C 155.742 198.734,156.326 198.051,156.180 198.050 C 156.034 198.048,155.260 198.664,154.460 199.419 M62.531 198.717 C 62.485 199.425,63.945 200.115,64.294 199.550 C 64.468 199.270,64.403 199.204,64.123 199.377 C 63.875 199.530,63.672 199.459,63.672 199.219 C 63.672 198.979,63.511 198.881,63.315 199.003 C 63.118 199.124,62.868 199.003,62.760 198.733 C 62.611 198.366,62.554 198.362,62.531 198.717 M252.734 208.789 C 252.734 214.124,252.837 218.387,252.963 218.261 C 253.278 217.946,253.301 199.655,252.987 199.341 C 252.848 199.202,252.734 203.454,252.734 208.789 M100.909 203.711 C 100.911 205.215,100.982 205.782,101.066 204.972 C 101.151 204.161,101.149 202.931,101.063 202.237 C 100.977 201.544,100.908 202.207,100.909 203.711 M178.635 201.854 C 180.956 201.923,184.647 201.923,186.838 201.854 C 189.028 201.784,187.129 201.728,182.617 201.728 C 178.105 201.728,176.313 201.785,178.635 201.854 M150.391 202.279 C 150.391 202.529,150.193 202.690,149.951 202.637 C 149.709 202.583,149.431 202.759,149.333 203.027 C 149.234 203.296,149.323 203.516,149.529 203.516 C 150.062 203.516,150.942 202.375,150.642 202.074 C 150.504 201.936,150.391 202.028,150.391 202.279 M71.875 202.799 C 71.875 203.050,71.991 203.140,72.132 202.998 C 72.273 202.857,72.625 202.937,72.913 203.176 C 73.243 203.450,73.438 203.464,73.438 203.215 C 73.438 202.996,73.159 202.711,72.820 202.581 C 71.970 202.255,71.875 202.277,71.875 202.799 M214.166 203.070 C 214.228 203.896,224.994 204.144,224.999 203.320 C 225.000 203.073,223.055 202.977,219.685 203.058 C 215.950 203.149,214.446 203.062,214.629 202.765 C 214.773 202.534,214.715 202.344,214.500 202.344 C 214.286 202.344,214.136 202.671,214.166 203.070 M287.617 204.297 C 287.617 205.479,287.690 205.962,287.780 205.371 C 287.869 204.780,287.869 203.813,287.780 203.223 C 287.690 202.632,287.617 203.115,287.617 204.297 M173.959 205.859 C 173.959 207.471,174.028 208.130,174.113 207.324 C 174.197 206.519,174.197 205.200,174.113 204.395 C 174.028 203.589,173.959 204.248,173.959 205.859 M135.742 203.748 C 137.598 204.046,140.234 204.083,140.234 203.811 C 140.234 203.649,139.048 203.540,137.598 203.569 C 136.147 203.598,135.313 203.679,135.742 203.748 M141.106 205.469 C 141.375 205.898,141.729 206.250,141.894 206.250 C 142.059 206.250,141.975 205.898,141.706 205.469 C 141.438 205.039,141.083 204.688,140.918 204.688 C 140.753 204.688,140.838 205.039,141.106 205.469 M76.953 207.422 C 76.953 208.066,77.129 208.594,77.344 208.594 C 77.559 208.594,77.734 208.066,77.734 207.422 C 77.734 206.777,77.559 206.250,77.344 206.250 C 77.129 206.250,76.953 206.777,76.953 207.422 M287.606 208.984 C 287.606 209.951,287.683 210.347,287.776 209.863 C 287.869 209.380,287.869 208.589,287.776 208.105 C 287.683 207.622,287.606 208.018,287.606 208.984 M59.990 208.934 C 60.404 209.337,60.874 209.590,61.035 209.497 C 61.196 209.405,61.328 209.544,61.328 209.808 C 61.328 210.071,61.457 210.157,61.615 209.999 C 61.773 209.841,61.466 209.377,60.932 208.966 C 59.680 208.005,59.011 207.982,59.990 208.934 M263.128 208.759 C 263.246 209.065,263.589 209.410,263.892 209.526 C 264.345 209.700,264.358 209.602,263.963 208.970 C 263.411 208.086,262.812 207.934,263.128 208.759 M76.117 210.123 C 75.610 210.534,75.283 210.939,75.391 211.023 C 75.498 211.107,76.009 210.770,76.527 210.275 C 77.666 209.185,77.397 209.085,76.117 210.123 M173.958 211.515 C 173.958 211.963,175.596 212.065,183.268 212.096 C 188.996 212.119,192.578 211.988,192.578 211.757 C 192.578 211.529,189.039 211.366,183.536 211.342 C 178.563 211.321,174.374 211.229,174.226 211.138 C 174.079 211.046,173.958 211.216,173.958 211.515 M82.921 214.941 C 81.984 216.153,81.997 216.518,82.945 215.655 C 83.517 215.134,83.984 214.650,83.984 214.580 C 83.984 214.257,83.260 214.504,82.921 214.941 M100.893 216.992 C 100.896 218.066,100.972 218.459,101.062 217.866 C 101.151 217.272,101.149 216.393,101.056 215.913 C 100.964 215.432,100.890 215.918,100.893 216.992 M192.578 217.109 C 192.578 217.711,192.358 218.424,192.090 218.695 C 191.698 219.089,191.737 219.135,192.285 218.927 C 192.902 218.692,193.351 216.016,192.773 216.016 C 192.666 216.016,192.578 216.508,192.578 217.109 M229.949 217.877 C 230.072 218.364,230.327 218.858,230.516 218.974 C 231.050 219.305,230.920 218.590,230.293 217.750 C 229.746 217.019,229.734 217.023,229.949 217.877 M158.345 218.274 C 158.509 218.539,158.126 218.759,157.332 218.857 C 156.065 219.014,156.067 219.016,157.520 219.078 C 158.951 219.139,159.435 218.684,158.533 218.127 C 158.264 217.960,158.188 218.019,158.345 218.274 M64.258 219.141 C 64.391 219.355,64.763 219.531,65.085 219.531 C 65.407 219.531,65.562 219.355,65.430 219.141 C 65.297 218.926,64.925 218.750,64.602 218.750 C 64.280 218.750,64.125 218.926,64.258 219.141 " stroke="none" fill="#a8acab" fill-rule="evenodd" /></g></svg>